<svg xmlns="http://www.w3.org/2000/svg" width="24" height="24" viewBox="0 0 24 24"><path d="M13.004 16.66v2.827q0 .897-.522.897-.308 0-.603-.295v-4.032q.294-.295.602-.295.522 0 .522.897zm4.527.014v.616h-1.204v-.616q0-.91.603-.91t.602.91zm-12.936-2.92h1.433v-1.26h-4.18v1.26h1.407v7.62h1.34v-7.62zm3.857 7.62h1.193V14.76H8.45v5.062q-.4.563-.762.563-.24 0-.28-.28-.014-.04-.014-.47V14.76H6.202v5.237q0 .656.107.978.16.496.776.496.643 0 1.366-.816v.723zm5.746-1.98v-2.64q0-.977-.12-1.325-.23-.75-.952-.75-.67 0-1.246.722v-2.906h-1.192v8.88h1.192v-.644q.603.737 1.246.737.723 0 .95-.738.122-.362.122-1.34zm4.527-.135v-.175h-1.22q0 .683-.026.817-.094.482-.536.482-.615 0-.615-.924v-1.165h2.397v-1.38q0-1.057-.362-1.553-.522-.683-1.42-.683-.91 0-1.433.682-.375.496-.375 1.554v2.317q0 1.058.388 1.554.522.683 1.446.683.964 0 1.446-.71.24-.362.28-.723.028-.12.028-.777zM10.58 7.03V4.22q0-.924-.576-.924t-.576.924V7.03q0 .94.576.94t.576-.94zm9.63 10.06q0 3.133-.348 4.687-.188.79-.777 1.326t-1.366.616q-2.465.28-7.434.28t-7.433-.28q-.777-.08-1.373-.617t-.77-1.326q-.348-1.5-.348-4.688 0-3.135.348-4.69.188-.79.777-1.325t1.38-.63q2.45-.267 7.42-.267t7.432.268q.776.094 1.372.63t.77 1.325q.348 1.5.348 4.69zM6.844 0H8.21L6.59 5.344v3.63H5.25v-3.63q-.188-.99-.817-2.84-.496-1.378-.87-2.503h1.42l.95 3.523zM11.8 4.46v2.344q0 1.085-.376 1.58-.496.683-1.42.683-.897 0-1.406-.683-.375-.51-.375-1.58V4.46q0-1.07.375-1.567.51-.683 1.406-.683.924 0 1.42.683.375.496.375 1.567zm4.486-2.17v6.683h-1.22v-.737q-.71.83-1.378.83-.616 0-.79-.496-.107-.32-.107-1.004V2.29h1.22v4.914q0 .442.013.47.04.294.28.294.363 0 .764-.576V2.29h1.22z"/></svg>