<svg xmlns="http://www.w3.org/2000/svg" width="24" height="24" viewBox="0 0 24 24"><path d="M13.004 16.661v2.826q0 .897-.522.897-.308 0-.603-.295v-4.031q.295-.295.603-.295.522 0 .522.897zm4.527.013v.616h-1.205v-.616q0-.911.603-.911t.603.911zm-12.937-2.92h1.433v-1.259H1.848v1.259h1.406v7.621h1.339v-7.621zm3.857 7.621h1.192v-6.616H8.451v5.063q-.402.563-.763.563-.241 0-.281-.281-.013-.04-.013-.469V14.76H6.202v5.237q0 .656.107.978.161.496.777.496.643 0 1.366-.817v.723zm5.745-1.982v-2.638q0-.978-.121-1.326-.228-.75-.951-.75-.67 0-1.246.723v-2.906h-1.192v8.879h1.192v-.643q.603.737 1.246.737.723 0 .951-.737.121-.362.121-1.339zm4.527-.134v-.174h-1.219q0 .683-.027.817-.094.482-.536.482-.616 0-.616-.924v-1.165h2.397v-1.379q0-1.058-.362-1.554-.522-.683-1.42-.683-.911 0-1.433.683-.375.496-.375 1.554v2.317q0 1.058.388 1.554.522.683 1.446.683.964 0 1.446-.71.241-.362.281-.723.027-.121.027-.777zM10.58 7.031V4.218q0-.924-.576-.924t-.576.924v2.813q0 .938.576.938t.576-.938zm9.63 10.058q0 3.134-.348 4.688-.188.79-.777 1.326t-1.366.616Q15.255 24 10.286 24t-7.433-.281q-.777-.08-1.373-.616t-.77-1.326q-.348-1.5-.348-4.688 0-3.134.348-4.688.188-.79.777-1.326t1.379-.629q2.451-.268 7.42-.268t7.433.268q.777.094 1.373.629t.77 1.326q.348 1.5.348 4.688zM6.844 0H8.21L6.589 5.344v3.629H5.25V5.344q-.188-.991-.817-2.839-.496-1.379-.871-2.504h1.42l.951 3.522zm4.955 4.46v2.344q0 1.085-.375 1.58-.496.683-1.42.683-.897 0-1.406-.683-.375-.509-.375-1.58V4.46q0-1.071.375-1.567.509-.683 1.406-.683.924 0 1.42.683.375.496.375 1.567zm4.487-2.17v6.683h-1.219v-.737q-.71.83-1.379.83-.616 0-.79-.496-.107-.321-.107-1.004V2.289h1.219v4.915q0 .442.013.469.04.295.281.295.362 0 .763-.576V2.289h1.219z"/></svg>